# xmcd
#
# Track frame offsets:
#	150
#	17840
#	33210
#	54250
#	73634
#	93030
#	119974
#	141647
#	161010
#	176575
#	191255
#	207928
#
# Disc length: 2979 seconds
# Revision: 0
# Processed by: cddbd v1.5.2PL0 Copyright (c) Steve Scherf et al.
# Submitted via: dBpowerAMP V12.0
#
DISCID=a70ba10c
DTITLE=The Lonely Heartstring Band - Deep Waters
DYEAR=2016
DGENRE=Country
TTITLE0=The Road’s Salvation
TTITLE1=Deep Waters
TTITLE2=Sophia
TTITLE3=The Tide
TTITLE4=The Look in My Eye
TTITLE5=Steal the Night
TTITLE6=Graceland
TTITLE7=Songbird
TTITLE8=Rambling, Gambling Willie
TTITLE9=Until I Cross That Line
TTITLE10=Big Bruce
TTITLE11=If I Had a Hammer
EXTD=
EXTT0=
EXTT1=
EXTT2=
EXTT3=
EXTT4=
EXTT5=
EXTT6=
EXTT7=
EXTT8=
EXTT9=
EXTT10=
EXTT11=
PLAYORDER=
